# xmcd CD database file
#
# Track frame offsets:
#	150
#	17739
#	32713
#	49115
#	64892
#	81929
#	99848
#	117598
#	141018
#	161275
#	177270
#	193685
#	220439
#	240184
#	256029
#	274656
#	296227
#
# Disc length: 4253 seconds
#
# Revision: 2
# Processed by: cddbd v1.4b41PL1 Copyright (c) Steve Scherf et al.
# Submitted via: Feurio! 1.50.2ß - http://www.feurio.com
#
DISCID=ee109b11
DTITLE=Various Artist - SOMMERHITS '99
DYEAR=1900
DGENRE=
TTITLE0=ANN LEE - 2 TIMES
TTITLE1=SHANKS and BIGFOOT - SWEET LIKE CHOCOLATE
TTITLE2=EL PASO - MATADOR
TTITLE3=PASION FRUIT - THE RIGGA DING DONG SONG
TTITLE4=LOONA - MAMBOLERO
TTITLE5=BRITNEY SPEARS - SOMETIMES
TTITLE6=TANK - RETURN OF POWER - SINGLE MIX
TTITLE7=PASION FRUIT - THE RIGGA DING DONG SONG
TTITLE8=JENNIFER LOPEZ - IF YOU HAD MY LOVE
TTITLE9=BACKSTREET BOYS - I WANT IT THAT WAY
TTITLE10=VENGA BOYS - WE'RE GONING TO IBIZA
TTITLE11=MR PRESIDENT - SIMBA LEO
TTITLE12=GARCIA - KALIMBA DE LUNA
TTITLE13=BRINEY SPEARS - ...BABY ONE MORE TIME
TTITLE14=WITHNEY HOUSTON - MY LOVE IS YOUR LOVE
TTITLE15=BASIS - TAUSEND JAHRE ...
TTITLE16=PUPLE SCHULZ - SEHNSUCHT '99
EXTD=
EXTT0=
EXTT1=
EXTT2=
EXTT3=
EXTT4=
EXTT5=
EXTT6=
EXTT7=
EXTT8=
EXTT9=
EXTT10=
EXTT11=
EXTT12=
EXTT13=
EXTT14=
EXTT15=
EXTT16=
PLAYORDER=
